<svg width="64" height="60" viewBox="0 0 64 60" fill="none" xmlns="http://www.w3.org/2000/svg">
<path d="M36.4442 57.3535L36.4442 46.5815C36.4442 45.1198 37.6186 43.936 39.0667 43.936C44.2337 43.936 47.0447 38.5904 47.4349 28.0381L39.0667 28.0381C37.6188 28.0381 36.4442 26.8526 36.4442 25.3927L36.4442 2.6471C36.4442 1.18605 37.6186 0.00222591 39.0667 0.00222616L61.3773 0.00223006C62.825 0.00223032 64 1.18735 64 2.6471L64 25.3929C64 30.4509 63.4938 35.0924 62.5001 39.1917C61.4793 43.394 59.9122 47.0678 57.8436 50.1124C55.7161 53.2411 53.0526 55.6962 49.9316 57.406C46.7869 59.1267 43.1315 60 39.0656 60C37.6188 59.9989 36.4442 58.814 36.4442 57.3535ZM2.62194 43.9351C1.1741 43.9351 -7.889e-06 45.1198 -8.1442e-06 46.5794L-1.0028e-05 57.3536C-1.02834e-05 58.8139 1.1741 59.998 2.62194 59.998C6.68585 59.998 10.3431 59.1245 13.4858 57.4039C16.6084 55.6943 19.2716 53.2412 21.3989 50.1103C23.4688 47.0658 25.0356 43.3917 26.0565 39.1874C27.0507 35.0882 27.5558 30.4465 27.5558 25.3907L27.5558 2.64488C27.5558 1.18383 26.3806 4.61254e-06 24.9333 4.35948e-06L2.62195 4.58436e-07C1.17411 2.05288e-07 -2.0718e-07 1.18493 -4.62444e-07 2.64487L-4.43944e-06 25.3907C-4.69487e-06 26.8515 1.17411 28.0361 2.62194 28.0361L10.8726 28.0361C10.4872 38.5893 7.71678 43.9351 2.62194 43.9351Z" fill="#DC4A19"/>
</svg>
